<!-- Created with Inkscape (http://www.inkscape.org/) -->

<svg id="svg3020" xmlns:rdf="http://www.w3.org/1999/02/22-rdf-syntax-ns#" xmlns="http://www.w3.org/2000/svg" viewBox="0 0 663.04 414.98" version="1.1" xmlns:cc="http://creativecommons.org/ns#" xmlns:dc="http://purl.org/dc/elements/1.1/">

 <g id="bear" transform="translate(-19.90928,-324.87257)">

  <path id="path3001" d="m140.2,649.22c-9.9-8-19.3-16.8-28.1-26.3-26.4-28.6-45.6-62-55.7-96.7-0.8-2.8-1.5-5.6-2.2-8.4-0.1-0.5-0.4-0.8-0.8-0.8-0.5,0-0.9,0.4-0.9,0.9v0.1c-0.5,15.5,1,31.3,4.9,47.2,0.7,2.8,1.4,5.6,2.2,8.4,1.5,5.2,3.3,10.2,5.2,15.2,14.9,34.4,44.4,58,74.8,62,0.3,0.1,0.6-0.1,0.8-0.4,0.3-0.4,0.2-1-0.2-1.2zm145-45.9c-0.8-0.7-1.7-0.5-2.3,0.1-0.5,0.4-2.3,2.4-3.3,2.9-2,1.1-4.2,1.7-11.4,1.3s-16.5-6.6-18.8-8.8c-2.3-2.1-2-4.7-2-5.8,0.1-0.9,0.8-12.3,1.7-15.9,0.7-2.9,1.1-4.1,1.3-4.4,0.1,0,0.2,0,0.4-0.1,9.1-1.6,27.4-8.7,28.5-19.4,1.3-12.6-11-24.2-27.6-26-16.6-1.7-31.1,7.1-32.4,19.7-1.1,10.8,15.5,21.7,24.1,25h0.1c0.1,0.5,0.2,1.8,0.1,4.5-0.1,3.7-2.1,14.9-2.2,15.8-0.2,1.1-0.5,3.6-3.3,5.1s-13.3,5.3-20.4,4-9.1-2.5-10.8-4c-0.8-0.8-2.1-3.1-2.5-3.6-0.5-0.7-1.3-1.1-2.2-0.6s-1.1,2.1-1,2.9,1.2,13.1,13.7,14.6c14.6,1.8,24.2-6.5,27.6-10.1,0,0,0.4-0.5,1-0.4,0.4,0,0.7,0.4,0.8,0.5,2.4,4.3,9.6,14.8,24.4,16.6,12.5,1.5,16.6-10.1,16.9-10.9,0.2-0.7,0.4-2.3-0.4-3zm337.4,0.4c-3.1,0.7-6.4,1.2-9.6,1.4-30.4,2.2-57.4-17.8-64.3-47.5-3.7-16-0.9-32.5,7.8-46.4s22.3-23.6,38.4-27.3c3.2-0.7,6.4-1.2,9.6-1.4,30.4-2.1,57.4,17.8,64.3,47.5,7.6,33-13.1,66-46.2,73.7zm-363.7,78.8c-49.2-8.8-96.1-35-131.9-73.8-38-41.1-58.9-92-58.9-139.8,0-3.9,0.1-7.8,0.4-11.7,2.2,0.9,4.4,1.7,6.6,2.2-2.9,48.8,17.6,102,56.9,144.5,14,15.2,29.8,28.4,46.8,39.3,3.7-3.2,4.9-8,2.2-12.5,0-0.1-0.1-0.2-0.1-0.2-12.5-23.1-16.6-51.8-9.4-79.2,4.6-17.3,13.1-31.8,24.1-42.8,15.9-15.8,36.3-17.7,58.1-15.6,21.8,2.6,41.3,8.9,53.4,27.7,8.4,13,13.6,29,14.4,46.9,1.2,28.3-9,55.5-26.1,75.4l-0.1,0.2c-4.3,4.5-3.3,10.7,1.4,14.8,0.9,0.7,1.9,1.5,2.8,2.1,1.9,1.3,3.8,2.5,5.8,3.6,11.8,6.4,25,8.9,38.5,7.8,16.3-5.2,31.2-13.1,44.1-23.5,21.4-17.3,35.9-39.8,43-66.9,6.8-25.9,6.2-54.5-1.5-82.9,2.3,0,4.6-0.1,7-0.3,4,15.2,6,30.5,6,45.4,0,13.5-1.6,26.7-5,39.3-7.6,28.7-22.9,52.4-45.5,70.7-26.2,21.5-60,32.6-97.3,32.6-11.6,0-23.6-1.1-35.7-3.3zm-105.3-224c12-10.4,28.3-11.2,36.4-1.8,7.6,8.8,5.3,23.3-4.8,33.6,3.1-4.3,4.2-9.4,3.1-13.6l-8,2.9c-4.1,1.5-6.3-0.7-4.8-4.8l2.5-7c-4.9-0.7-10.5,1-15.1,5-7.5,6.5-9.4,16.6-4.3,22.5,2.9,3.3,7.3,4.6,11.9,4.1-9.1,2.8-18.4,1.2-23.9-5.2-8.2-9.3-5-25.3,7-35.7zm173,13c9.9-7.4,25.7-3.2,35.2,9.5s9.1,29-0.8,36.4c-6.2,4.7-14.8,4.7-22.6,1,4.1,1.1,8.2,0.6,11.4-1.8,5.2-3.9,6.3-11.6,3.2-18.6l-7.5,2.7c-4.1,1.5-6.3-0.7-4.8-4.8l2.9-8.2c-5.2-2.9-11.1-3-15.3,0.2-5.5,4.1-6.4,12.4-2.7,19.7-9.3-12.7-8.8-28.7,1-36.1zm354.4,55.6c-9.2-39.9-49.1-64.7-89-55.5s-64.8,49-55.6,88.9c4.3,18.6,15.2,33.9,29.7,44-5.6,7.5-11.5,14.7-17.8,21.5-1.2-4.5-3.2-9-5.8-13.2-0.2-0.4-0.5-0.7-0.7-1.1-0.1-0.1-0.2-0.3-0.3-0.4-1.7-2.5-3.7-4.9-6.1-7.3-2.7-2.7-5.6-5.1-8.6-7-0.3-0.2-0.5-0.3-0.8-0.5l-0.4-0.3c-0.4-0.3-0.9-0.6-1.3-0.8-2.9-1.7-6.1-3.1-9.6-4.1-5-1.5-10-2.1-14.8-1.8-11.9,0.3-25.1,4.9-37,15.4-30.8,27.4-36.8,72-37.8,93.3-16,3.6-32.4,5.5-48.7,5.5-12.4,0-24.8-1.1-37.1-3.3-2.8-0.5-5.5-1.1-8.2-1.7l-7.9-1.8,8.6-1.8c25.8-5.3,48.8-16,68.3-31.7,24.8-19.9,42.3-47,50.4-78.2,3.6-13.7,5.4-28.1,5.4-42.7,0-15.6-2-31.4-6-47.2,24.6-7.4,49.6-28.3,52.7-57.1,4.1-37.6-23.3-71.6-62.1-75.8-25.4-2.7-49,7.9-63.5,26.2-13.5-10.5-28.6-19.6-45.5-26.9-19.9-8.8-40.7-14.3-61.6-16.9-21-1.9-42.4-0.9-63.7,3.3-18.8,3.7-36.2,9.7-52.2,17.6-10-21.6-31.1-37.6-57-40.4-38.7-4.3-72.7,22.9-76.8,60.5-2.8,26,15,51.3,35.9,64.9-0.7,6.6-1.1,13.2-1.1,19.8,0,51.1,21.8,103.9,62.2,147.6,37.6,40.6,86.7,68.1,138.6,77.5,10.6,1.9,21.5,3,32.4,3.3h0.3l0.3,0.1c15,6.6,31,11.4,47.3,14.4,13.1,2.3,26.2,3.5,39.3,3.5,50.3,0,100-16.7,142-46.8,5.8-0.1,11.3-1.5,16.2-4.2-10.6,8.6-21.9,16.3-33.7,23.2-22.2,12.9-45.8,22.3-70,28.1-0.4,0.1-0.5,0.3-0.6,0.5-0.2,0.4,0,0.8,0.5,1.1,13.4,7.6,50.1,24.5,105.6,20.4,51-3.7,75-37.2,77.9-56.8s-3.5-32.9-12.6-41.8c-4.6-4.5-11.6-7.4-19.7-7.4-7.6,0-14.1,1.8-19.5,6.9-6,6.4-12.3,12.4-18.8,18.2,3.5-4.3,5.6-9.5,6.5-15,10.4-10.3,20-21.5,28.8-33.6l1.9-2.6c3.3-4.1,6.8-3.4,7.5,1.5l0.6,6.4c11.8,3.4,24.5,4,37.3,1,40.1-9.2,65-49,55.7-88.9z" fill-opacity="0.07999998" fill-rule="evenodd" fill="#796b67"/>

 </g>

</svg>